<?xml version="1.0" encoding="UTF-8"?>
<svg id="_レイヤー_3" data-name="レイヤー 3" xmlns="http://www.w3.org/2000/svg" xmlns:xlink="http://www.w3.org/1999/xlink" viewBox="0 0 85.04 85.04">
  <defs>
    <style>
      .cls-1 {
        fill: #fff;
      }

      .cls-2 {
        fill: url(#_名称未設定グラデーション_15);
      }
    </style>
    <linearGradient id="_名称未設定グラデーション_15" data-name="名称未設定グラデーション 15" x1="42.52" y1="1.52" x2="42.52" y2="82.98" gradientUnits="userSpaceOnUse">
      <stop offset="0" stop-color="#2a9ddb"/>
      <stop offset="1" stop-color="#161348"/>
    </linearGradient>
  </defs>
  <path class="cls-1" d="M9.18,42.52c0-2.71.33-5.35.95-7.88h-3.14c-.56,2.54-.87,5.17-.87,7.88,0,17.81,12.8,32.63,29.71,35.77v-3.1c-15.19-3.1-26.66-16.57-26.66-32.66Z"/>
  <path class="cls-1" d="M75.86,42.52c0,16.11-11.49,29.59-26.71,32.67v3.1c16.93-3.12,29.76-17.94,29.76-35.77,0-2.71-.3-5.34-.87-7.88h-3.14c.62,2.53.95,5.16.95,7.88Z"/>
  <g>
    <g>
      <path class="cls-1" d="M82.78,34.9c-.09,0-.17.03-.26.03-2.83,0-4.02-2.52-3.6-4.66-2.92-1.14-2.99-5.71-.22-7.03-1.91-3.58-4.34-6.85-7.19-9.7-3.71-3.71-8.13-6.71-13.03-8.79s-10.3-3.22-15.96-3.22-11.05,1.15-15.96,3.22c-4.91,2.07-9.32,5.08-13.03,8.79-2.78,2.78-5.17,5.96-7.06,9.45-.04.08-.08.16-.12.24,2.73,1.77,2.06,7.06-2.04,7.06-.04,0-.07-.01-.11-.01.49,1.77-.17,3.9-1.98,4.68-.46,2.45-.7,4.99-.7,7.57,0,5.66,1.15,11.05,3.22,15.96,2.07,4.91,5.08,9.32,8.79,13.03,3.71,3.71,8.13,6.71,13.03,8.79,2.96,1.25,6.1,2.16,9.36,2.69.37-1.51,1.54-2.8,3.56-2.8,1.19,0,2.09.46,2.7,1.14.57-1.05,1.63-1.83,3.2-1.83,2.23,0,3.42,1.57,3.63,3.28.05.06.09.13.14.2,3.26-.53,6.39-1.43,9.34-2.68,4.91-2.07,9.32-5.08,13.03-8.79,3.71-3.71,6.71-8.13,8.79-13.03,2.07-4.91,3.22-10.3,3.22-15.96,0-2.61-.27-5.15-.74-7.62Z"/>
      <path class="cls-2" d="M82.78,34.9c-.09,0-.17.03-.26.03-2.83,0-4.02-2.52-3.6-4.66-2.92-1.14-2.99-5.71-.22-7.03-1.91-3.58-4.34-6.85-7.19-9.7-3.71-3.71-8.13-6.71-13.03-8.79s-10.3-3.22-15.96-3.22-11.05,1.15-15.96,3.22c-4.91,2.07-9.32,5.08-13.03,8.79-2.78,2.78-5.17,5.96-7.06,9.45-.04.08-.08.16-.12.24,2.73,1.77,2.06,7.06-2.04,7.06-.04,0-.07-.01-.11-.01.49,1.77-.17,3.9-1.98,4.68-.46,2.45-.7,4.99-.7,7.57,0,5.66,1.15,11.05,3.22,15.96,2.07,4.91,5.08,9.32,8.79,13.03,3.71,3.71,8.13,6.71,13.03,8.79,2.96,1.25,6.1,2.16,9.36,2.69.37-1.51,1.54-2.8,3.56-2.8,1.19,0,2.09.46,2.7,1.14.57-1.05,1.63-1.83,3.2-1.83,2.23,0,3.42,1.57,3.63,3.28.05.06.09.13.14.2,3.26-.53,6.39-1.43,9.34-2.68,4.91-2.07,9.32-5.08,13.03-8.79,3.71-3.71,6.71-8.13,8.79-13.03,2.07-4.91,3.22-10.3,3.22-15.96,0-2.61-.27-5.15-.74-7.62Z"/>
    </g>
    <path class="cls-1" d="M42.52,7.07c19.55,0,35.45,15.9,35.45,35.45s-15.9,35.45-35.45,35.45S7.07,62.07,7.07,42.52,22.97,7.07,42.52,7.07M42.52,6.07C22.39,6.07,6.07,22.39,6.07,42.52s16.32,36.45,36.45,36.45,36.45-16.32,36.45-36.45S62.65,6.07,42.52,6.07h0Z"/>
    <path class="cls-1" d="M20.02,34.92c8.73,0,15.8,7.04,15.8,15.73v32.32c2.18.36,4.41.55,6.69.55s4.51-.19,6.69-.55v-32.32c0-8.69,7.08-15.73,15.8-15.73h17.8c-.78-4.15-2.18-8.08-4.11-11.69H6.34c-1.94,3.61-3.34,7.54-4.11,11.69h17.8Z"/>
  </g>
</svg>