<?xml version="1.0" encoding="UTF-8"?>
<svg id="_02_Account_" data-name="02 Account
" xmlns="http://www.w3.org/2000/svg" viewBox="0 0 512 512">
  <defs>
    <style>
      .cls-1 {
        fill: #ffd1a2;
      }

      .cls-1, .cls-2, .cls-3, .cls-4, .cls-5 {
        stroke-width: 0px;
      }

      .cls-2 {
        fill: #f0f0f0;
      }

      .cls-3 {
        fill: #73ceff;
      }

      .cls-4 {
        fill: #4e5c6f;
      }

      .cls-5 {
        fill: #8c8c8e;
      }
    </style>
  </defs>
  <g>
    <rect class="cls-5" x="8" y="40" width="496" height="352" rx="16" ry="16"/>
    <rect class="cls-5" x="224" y="392" width="64" height="80"/>
    <rect class="cls-3" x="40" y="72" width="432" height="288"/>
    <circle class="cls-2" cx="256" cy="216" r="80"/>
    <circle class="cls-1" cx="256" cy="216" r="32"/>
    <path class="cls-3" d="M256,296c21.43,0,40.88-8.44,55.24-22.17-13.21-15.79-33.05-25.83-55.24-25.83s-42.03,10.05-55.24,25.83c14.36,13.72,33.81,22.17,55.24,22.17Z"/>
  </g>
  <g>
    <path class="cls-4" d="M472,64H40c-4.42,0-8,3.58-8,8v288c0,4.42,3.58,8,8,8h432c4.42,0,8-3.58,8-8V72c0-4.42-3.58-8-8-8ZM464,352H48V80h416v272Z"/>
    <path class="cls-4" d="M488,32H24C10.77,32,0,42.77,0,56v320c0,13.23,10.77,24,24,24h192v64h-40c-4.42,0-8,3.58-8,8s3.58,8,8,8h160c4.42,0,8-3.58,8-8s-3.58-8-8-8h-40v-64h192c13.23,0,24-10.77,24-24V56c0-13.23-10.77-24-24-24ZM280,464h-48v-64h48v64ZM496,376c0,4.41-3.59,8-8,8H24c-4.41,0-8-3.59-8-8V56c0-4.41,3.59-8,8-8h464c4.41,0,8,3.59,8,8v320Z"/>
    <path class="cls-4" d="M256,304c48.52,0,88-39.48,88-88s-39.48-88-88-88-88,39.48-88,88,39.48,88,88,88ZM212.36,273.22c11.79-11.01,27.3-17.22,43.64-17.22s31.84,6.2,43.64,17.22c-12.12,9.26-27.24,14.78-43.64,14.78s-31.52-5.52-43.64-14.78ZM232,216c0-13.23,10.77-24,24-24s24,10.77,24,24-10.77,24-24,24-24-10.77-24-24ZM256,144c39.7,0,72,32.3,72,72,0,17.54-6.31,33.63-16.77,46.13-7.99-7.64-17.4-13.47-27.62-17.23,7.63-7.29,12.39-17.55,12.39-28.9,0-22.06-17.94-40-40-40s-40,17.94-40,40c0,11.36,4.77,21.62,12.39,28.9-10.22,3.76-19.63,9.59-27.62,17.23-10.46-12.5-16.77-28.59-16.77-46.13,0-39.7,32.3-72,72-72Z"/>
  </g>
</svg>