<?xml version="1.0" encoding="UTF-8"?>
<svg id="_13_Authentication_" data-name="13 Authentication
" xmlns="http://www.w3.org/2000/svg" viewBox="0 0 512 512">
  <defs>
    <style>
      .cls-1 {
        fill: #ffd1a2;
      }

      .cls-1, .cls-2, .cls-3, .cls-4 {
        stroke-width: 0px;
      }

      .cls-2 {
        fill: #f0f0f0;
      }

      .cls-3 {
        fill: #73ceff;
      }

      .cls-4 {
        fill: #4e5c6f;
      }
    </style>
  </defs>
  <g>
    <rect class="cls-3" x="120" y="8" width="272" height="496" rx="32" ry="32"/>
    <rect class="cls-2" x="160" y="288" width="192" height="72" rx="16" ry="16"/>
    <g>
      <circle class="cls-2" cx="256" cy="168" r="80"/>
      <circle class="cls-1" cx="256" cy="168" r="32"/>
      <path class="cls-3" d="M256,248c21.43,0,40.88-8.44,55.24-22.17-13.21-15.79-33.05-25.83-55.24-25.83s-42.03,10.05-55.24,25.83c14.36,13.72,33.81,22.17,55.24,22.17Z"/>
    </g>
  </g>
  <g>
    <path class="cls-4" d="M360,0h-208c-22.06,0-40,17.94-40,40v432c0,22.06,17.94,40,40,40h208c22.06,0,40-17.94,40-40V40c0-22.06-17.94-40-40-40ZM384,472c0,13.23-10.77,24-24,24h-208c-13.23,0-24-10.77-24-24V40c0-13.23,10.77-24,24-24h208c13.23,0,24,10.77,24,24v432Z"/>
    <path class="cls-4" d="M272,464h-32c-4.42,0-8,3.58-8,8s3.58,8,8,8h32c4.42,0,8-3.58,8-8s-3.58-8-8-8Z"/>
    <path class="cls-4" d="M256,256c48.52,0,88-39.48,88-88s-39.48-88-88-88-88,39.48-88,88,39.48,88,88,88ZM212.36,225.22c11.79-11.01,27.3-17.22,43.64-17.22s31.84,6.2,43.64,17.22c-12.12,9.26-27.24,14.78-43.64,14.78s-31.52-5.52-43.64-14.78ZM232,168c0-13.23,10.77-24,24-24s24,10.77,24,24-10.77,24-24,24-24-10.77-24-24ZM256,96c39.7,0,72,32.3,72,72,0,17.54-6.31,33.63-16.77,46.13-7.99-7.64-17.4-13.47-27.62-17.23,7.63-7.29,12.39-17.55,12.39-28.9,0-22.06-17.94-40-40-40s-40,17.94-40,40c0,11.36,4.77,21.62,12.39,28.9-10.22,3.76-19.63,9.59-27.62,17.23-10.46-12.5-16.77-28.59-16.77-46.13,0-39.7,32.3-72,72-72Z"/>
    <path class="cls-4" d="M266.34,394.34l-16.15,16.15-3.04-6.07c-1.98-3.95-6.78-5.55-10.73-3.58-3.95,1.98-5.55,6.78-3.58,10.73l8,16c1.15,2.3,3.34,3.91,5.87,4.32.43.07.86.1,1.28.1,2.1,0,4.14-.83,5.66-2.34l24-24c3.12-3.12,3.12-8.19,0-11.31-3.12-3.12-8.19-3.12-11.31,0Z"/>
    <path class="cls-4" d="M192,312c-4.42,0-8,3.58-8,8v8c0,4.42,3.58,8,8,8s8-3.58,8-8v-8c0-4.42-3.58-8-8-8Z"/>
    <path class="cls-4" d="M224,312c-4.42,0-8,3.58-8,8v8c0,4.42,3.58,8,8,8s8-3.58,8-8v-8c0-4.42-3.58-8-8-8Z"/>
    <path class="cls-4" d="M256,312c-4.42,0-8,3.58-8,8v8c0,4.42,3.58,8,8,8s8-3.58,8-8v-8c0-4.42-3.58-8-8-8Z"/>
    <path class="cls-4" d="M288,312c-4.42,0-8,3.58-8,8v8c0,4.42,3.58,8,8,8s8-3.58,8-8v-8c0-4.42-3.58-8-8-8Z"/>
    <path class="cls-4" d="M320,312c-4.42,0-8,3.58-8,8v8c0,4.42,3.58,8,8,8s8-3.58,8-8v-8c0-4.42-3.58-8-8-8Z"/>
    <path class="cls-4" d="M336,280h-160c-13.23,0-24,10.77-24,24v40c0,13.23,10.77,24,24,24h160c13.23,0,24-10.77,24-24v-40c0-13.23-10.77-24-24-24ZM344,344c0,4.41-3.59,8-8,8h-160c-4.41,0-8-3.59-8-8v-40c0-4.41,3.59-8,8-8h160c4.41,0,8,3.59,8,8v40Z"/>
    <circle class="cls-4" cx="256" cy="40" r="8"/>
  </g>
</svg>