<?xml version="1.0" encoding="utf-8"?>
<!-- Generator: Adobe Illustrator 22.1.0, SVG Export Plug-In . SVG Version: 6.00 Build 0)  -->
<svg version="1.1" id="图层_1" xmlns="http://www.w3.org/2000/svg" xmlns:xlink="http://www.w3.org/1999/xlink" x="0px" y="0px"
	 viewBox="0 0 48 48" style="enable-background:new 0 0 48 48;" xml:space="preserve">
<style type="text/css">
	.st0{fill:#007CFF;}
	.st1{opacity:0.3;fill:#007CFF;enable-background:new    ;}
</style>
<g id="Book">
	<path id="Combined-Shape" class="st0" d="M22,40H12c-2.2,0-4-1.8-4-4V8c0-2.2,1.8-4,4-4h27v30h-2v4h2v2h-7v-2H22V40z M37,6H12
		c-1.1,0-2,0.9-2,2v28c0,1.1,0.9,2,2,2h25V6z"/>
	<path id="Combined-Shape_1_" class="st0" d="M12,34v-2h25V6H12V4h27v30H12z M8,30V8V30z"/>
	<path id="Oval" class="st0" d="M12,32v2c-1.1,0-2,0.9-2,2s0.9,2,2,2v2c-2.2,0-4-1.8-4-4S9.8,32,12,32z"/>
	<path id="Oval-Copy" class="st0" d="M39,32v2c-1.1,0-2,0.9-2,2s0.9,2,2,2v2c-2.2,0-4-1.8-4-4S36.8,32,39,32z"/>
	<path id="Path-2" class="st1" d="M22,43.4V35h10v8.5l-4.9-1.9L22,43.4z M24,37v3.6l3.2-1.2l2.8,1.1V37H24z"/>
	<rect id="Rectangle-5" x="15" y="6" class="st0" width="2" height="26"/>
</g>
</svg>
