<?xml version="1.0" encoding="utf-8"?>
<!-- Generator: Adobe Illustrator 26.4.1, SVG Export Plug-In . SVG Version: 6.00 Build 0)  -->
<svg version="1.1" id="图层_1" xmlns="http://www.w3.org/2000/svg" xmlns:xlink="http://www.w3.org/1999/xlink" x="0px" y="0px"
	 viewBox="0 0 48 48" style="enable-background:new 0 0 48 48;" xml:space="preserve">
<style type="text/css">
	.st0{fill:#007CFF;}
	.st1{opacity:0.3;fill:#007CFF;enable-background:new    ;}
</style>
<path id="Combined-Shape" class="st0" d="M40,14c1.1,0,2,0.9,2,2v8l-1,0.4V38c0,1.1-0.9,2-2,2H9c-1.1,0-2-0.9-2-2V24.4L6,24v-8
	c0-1.1,0.9-2,2-2H40z M40,16H8v6.6l12,4.6v2.1L9,25.2V38h30V25.2l-11,4.3v-2.1l12-4.7V16z M31,8c0.6,0,1,0.4,1,1v3c0,0.6-0.4,1-1,1
	H17c-0.6,0-1-0.4-1-1V9c0-0.6,0.4-1,1-1H31z M30,10H18v1h12V10z"/>
<path id="Combined-Shape_00000083053045723824074620000006075240339870400911_" class="st1" d="M18,12h2v3h-2V12z M28,11h2v4h-2V11z
	 M22,27v4h4v-4H22z M22,25h4c1.1,0,2,0.9,2,2v4c0,1.1-0.9,2-2,2h-4c-1.1,0-2-0.9-2-2v-4C20,25.9,20.9,25,22,25z"/>
</svg>
