<?xml version="1.0" encoding="utf-8"?>
<!-- Generator: Adobe Illustrator 26.4.1, SVG Export Plug-In . SVG Version: 6.00 Build 0)  -->
<svg version="1.1" id="图层_1" xmlns="http://www.w3.org/2000/svg" xmlns:xlink="http://www.w3.org/1999/xlink" x="0px" y="0px"
	 viewBox="0 0 48 48" style="enable-background:new 0 0 48 48;" xml:space="preserve">
<style type="text/css">
	.st0{fill:#007CFF;}
	.st1{opacity:0.3;fill:#007CFF;enable-background:new    ;}
</style>
<path id="形状结合" class="st0" d="M24,6c5.5,0,10,4.5,10,10v12c0,4.1-2.5,7.6-6,9.2l0,2.8h4c0.6,0,1,0.4,1,1s-0.4,1-1,1H16
	c-0.6,0-1-0.4-1-1s0.4-1,1-1h4l0-2.8c-3.5-1.5-6-5.1-6-9.2V16C14,10.5,18.5,6,24,6z M26,37.8c-0.6,0.1-1.3,0.2-2,0.2
	c-0.7,0-1.4-0.1-2-0.2l0,2.2h4L26,37.8z M24,8c-4.4,0-8,3.6-8,8v12c0,4.4,3.6,8,8,8s8-3.6,8-8V16C32,11.6,28.4,8,24,8z M24,10
	c3.9,0,7,3.1,7,7s-3.1,7-7,7s-7-3.1-7-7S20.1,10,24,10z M24,12c-2.8,0-5,2.2-5,5s2.2,5,5,5s5-2.2,5-5S26.8,12,24,12z"/>
<path id="形状结合_00000068664178179351132760000006659690940610276259_" class="st1" d="M24,20c1.7,0,3-1.3,3-3s-1.3-3-3-3
	s-3,1.3-3,3S22.3,20,24,20z M24,18c-0.6,0-1-0.4-1-1s0.4-1,1-1s1,0.4,1,1S24.6,18,24,18z M24,33c0.6,0,1-0.4,1-1s-0.4-1-1-1
	s-1,0.4-1,1S23.4,33,24,33z"/>
</svg>
