<?xml version="1.0" encoding="utf-8"?>
<!-- Generator: Adobe Illustrator 26.4.1, SVG Export Plug-In . SVG Version: 6.00 Build 0)  -->
<svg version="1.1" id="图层_1" xmlns="http://www.w3.org/2000/svg" xmlns:xlink="http://www.w3.org/1999/xlink" x="0px" y="0px"
	 viewBox="0 0 48 48" style="enable-background:new 0 0 48 48;" xml:space="preserve">
<style type="text/css">
	.st0{fill:#007CFF;}
	.st1{opacity:0.3;fill:#007CFF;enable-background:new    ;}
</style>
<path id="形状结合" class="st0" d="M24,7c7.2,0,13,5.8,13,13c0,4.3-2.1,8.1-5.3,10.5l0,0c1.3,1.1,2.3,2.5,3.1,4.3
	C35.9,37,30.6,39,24,39c-6.6,0-11.9-2.1-10.8-4.4c0.8-1.7,1.8-3.1,3.1-4.2l-0.1-0.1C13,27.9,11,24.2,11,20C11,12.8,16.8,7,24,7z
	 M30,31.5c-1.8,0.9-3.8,1.5-6,1.5s-4.2-0.5-6-1.5l0,0l0,0c-1.2,0.8-2.1,2-2.9,3.5c0.3,0.3,0.8,0.5,1.4,0.8c1.8,0.7,4.3,1.1,7.4,1.1
	c3.1,0,5.7-0.4,7.4-1.1c0.7-0.3,1.2-0.5,1.4-0.8C32.1,33.6,31.2,32.4,30,31.5L30,31.5z M24,9c-6.1,0-11,4.9-11,11s4.9,11,11,11
	s11-4.9,11-11S30.1,9,24,9z M24,13c3.9,0,7,3.1,7,7s-3.1,7-7,7s-7-3.1-7-7S20.1,13,24,13z M24,15c-2.8,0-5,2.2-5,5s2.2,5,5,5
	s5-2.2,5-5S26.8,15,24,15z"/>
<path id="形状结合_00000078724727557842524530000011992520153148373143_" class="st1" d="M24,23c1.7,0,3-1.3,3-3s-1.3-3-3-3
	s-3,1.3-3,3S22.3,23,24,23z M24,21c-0.6,0-1-0.4-1-1s0.4-1,1-1s1,0.4,1,1S24.6,21,24,21z M12,17h6v2h-6V17z M30,17h6v2h-6V17z
	 M12,21h6v2h-6V21z M30,21h6v2h-6V21z M24,30c0.6,0,1-0.4,1-1s-0.4-1-1-1s-1,0.4-1,1S23.4,30,24,30z"/>
</svg>
