<svg xmlns="http://www.w3.org/2000/svg" viewBox="0 0 32 32"><title>49-Communication</title><g id="_49-Communication" data-name="49-Communication"><path d="M24.29.5l-.6,1.91A9,9,0,0,1,30,11v4a9,9,0,0,1-9,9H19a1,1,0,0,0-.71.29L14,28.59V25a1,1,0,0,0-1-1H11a9,9,0,0,1-8.25-5.4l-1.83.8A11,11,0,0,0,11,26h1v5a1,1,0,0,0,1.71.71L19.41,26H21A11,11,0,0,0,32,15V11A11,11,0,0,0,24.29.5Z"/><path d="M7,16v3a1,1,0,0,0,1.63.78L13.35,16H15a7,7,0,0,0,7-7V7a7,7,0,0,0-7-7H7A7,7,0,0,0,0,7V9A7,7,0,0,0,7,16ZM2,7A5,5,0,0,1,7,2h8a5,5,0,0,1,5,5V9a5,5,0,0,1-5,5H13a1,1,0,0,0-.62.22L9,16.92V15a1,1,0,0,0-1-1H7A5,5,0,0,1,2,9Z"/></g></svg>