<?xml version="1.0" encoding="utf-8"?>
<!-- Generator: Adobe Illustrator 26.4.1, SVG Export Plug-In . SVG Version: 6.00 Build 0)  -->
<svg version="1.1" id="图层_1" xmlns="http://www.w3.org/2000/svg" xmlns:xlink="http://www.w3.org/1999/xlink" x="0px" y="0px"
	 viewBox="0 0 48 48" style="enable-background:new 0 0 48 48;" xml:space="preserve">
<style type="text/css">
	.st0{fill:#007CFF;}
	.st1{opacity:0.3;fill:#007CFF;enable-background:new    ;}
</style>
<path id="Combined-Shape" class="st0" d="M37,10c2.2,0,4,1.8,4,4v18c0,2.2-1.8,4-4,4h-8v2h2v2H17v-2h2v-2h-8c-2.2,0-4-1.8-4-4V14
	c0-2.2,1.8-4,4-4H37z M27,36h-6l0,2h6L27,36z M39,31H9v1c0,1.1,0.9,2,2,2h8h10h8c1.1,0,2-0.9,2-2V31z M37,12H11c-1.1,0-2,0.9-2,2v15
	h30V14C39,12.9,38.1,12,37,12z"/>
<path id="Combined-Shape_00000005965218097727612050000014314532368978730936_" class="st1" d="M33,15v8h-6v4H15V17h8v-2H33z M23,19
	h-6v6h8v-2h-2V19z M31,17h-6v4h6V17z"/>
</svg>
