<?xml version="1.0" encoding="UTF-8"?>
<svg id="_06_Connect_" data-name="06 Connect
" xmlns="http://www.w3.org/2000/svg" viewBox="0 0 512 512">
  <defs>
    <style>
      .cls-1 {
        fill: #ffd1a2;
      }

      .cls-1, .cls-2, .cls-3, .cls-4 {
        stroke-width: 0px;
      }

      .cls-2 {
        fill: #f0f0f0;
      }

      .cls-3 {
        fill: #73ceff;
      }

      .cls-4 {
        fill: #4e5c6f;
      }
    </style>
  </defs>
  <g>
    <g>
      <circle class="cls-2" cx="120" cy="256" r="80"/>
      <circle class="cls-1" cx="120" cy="256" r="32"/>
      <path class="cls-3" d="M120,336c21.43,0,40.88-8.44,55.24-22.17-13.21-15.79-33.05-25.83-55.24-25.83s-42.03,10.05-55.24,25.83c14.36,13.72,33.81,22.17,55.24,22.17Z"/>
    </g>
    <g>
      <circle class="cls-2" cx="392" cy="88" r="80"/>
      <circle class="cls-1" cx="392" cy="88" r="32"/>
      <path class="cls-3" d="M392,168c21.43,0,40.88-8.44,55.24-22.17-13.21-15.79-33.05-25.83-55.24-25.83s-42.03,10.05-55.24,25.83c14.36,13.72,33.81,22.17,55.24,22.17Z"/>
    </g>
    <g>
      <circle class="cls-2" cx="392" cy="424" r="80"/>
      <circle class="cls-1" cx="392" cy="424" r="32"/>
      <path class="cls-3" d="M392,504c21.43,0,40.88-8.44,55.24-22.17-13.21-15.79-33.05-25.83-55.24-25.83s-42.03,10.05-55.24,25.83c14.36,13.72,33.81,22.17,55.24,22.17Z"/>
    </g>
  </g>
  <path class="cls-4" d="M392,336c-28.71,0-54.25,13.82-70.33,35.16l-122.92-75.92c5.91-11.82,9.25-25.15,9.25-39.24s-3.33-27.42-9.25-39.24l122.92-75.92c16.07,21.34,41.61,35.16,70.33,35.16,48.52,0,88-39.48,88-88S440.52,0,392,0s-88,39.48-88,88c0,14.09,3.33,27.42,9.25,39.24l-122.92,75.92c-16.07-21.34-41.61-35.16-70.33-35.16-48.52,0-88,39.48-88,88s39.48,88,88,88c28.71,0,54.25-13.82,70.33-35.16l122.92,75.92c-5.91,11.82-9.25,25.15-9.25,39.24,0,48.52,39.48,88,88,88s88-39.48,88-88-39.48-88-88-88ZM348.36,145.22c11.79-11.01,27.3-17.22,43.64-17.22s31.84,6.2,43.64,17.22c-12.12,9.26-27.24,14.78-43.64,14.78s-31.52-5.52-43.64-14.78ZM368,88c0-13.23,10.77-24,24-24s24,10.77,24,24-10.77,24-24,24-24-10.77-24-24ZM392,16c39.7,0,72,32.3,72,72,0,17.54-6.31,33.63-16.77,46.13-7.99-7.64-17.4-13.47-27.62-17.23,7.63-7.29,12.39-17.55,12.39-28.9,0-22.06-17.94-40-40-40s-40,17.94-40,40c0,11.36,4.77,21.62,12.39,28.9-10.22,3.76-19.63,9.59-27.62,17.23-10.46-12.5-16.77-28.59-16.77-46.13,0-39.7,32.3-72,72-72ZM120,184c39.7,0,72,32.3,72,72,0,17.54-6.31,33.63-16.77,46.13-7.99-7.64-17.4-13.47-27.62-17.23,7.63-7.29,12.39-17.55,12.39-28.9,0-22.06-17.94-40-40-40s-40,17.94-40,40c0,11.36,4.77,21.62,12.39,28.9-10.22,3.76-19.63,9.59-27.62,17.23-10.46-12.5-16.77-28.59-16.77-46.13,0-39.7,32.3-72,72-72ZM96,256c0-13.23,10.77-24,24-24s24,10.77,24,24-10.77,24-24,24-24-10.77-24-24ZM76.36,313.22c11.79-11.01,27.3-17.22,43.64-17.22s31.84,6.2,43.64,17.22c-12.12,9.26-27.24,14.78-43.64,14.78s-31.52-5.52-43.64-14.78ZM348.36,481.22c11.79-11.01,27.3-17.22,43.64-17.22s31.84,6.2,43.64,17.22c-12.12,9.26-27.24,14.78-43.64,14.78s-31.52-5.52-43.64-14.78ZM368,424c0-13.23,10.77-24,24-24s24,10.77,24,24-10.77,24-24,24-24-10.77-24-24ZM447.23,470.13c-7.99-7.64-17.4-13.47-27.62-17.23,7.63-7.29,12.39-17.55,12.39-28.9,0-22.06-17.94-40-40-40s-40,17.94-40,40c0,11.36,4.77,21.62,12.39,28.9-10.22,3.76-19.63,9.59-27.62,17.23-10.46-12.5-16.77-28.59-16.77-46.13,0-39.7,32.3-72,72-72s72,32.3,72,72c0,17.54-6.31,33.63-16.77,46.13Z"/>
</svg>