<?xml version="1.0" encoding="UTF-8"?>
<svg id="_09_Data_" data-name="09 Data
" xmlns="http://www.w3.org/2000/svg" viewBox="0 0 512 512">
  <defs>
    <style>
      .cls-1 {
        fill: #516079;
      }

      .cls-1, .cls-2, .cls-3 {
        stroke-width: 0px;
      }

      .cls-2 {
        fill: #909490;
      }

      .cls-3 {
        fill: #ff8b73;
      }
    </style>
  </defs>
  <g>
    <path class="cls-2" d="m72,64v384c0,30.93,82.38,56,184,56s184-25.07,184-56V64H72Z"/>
    <ellipse class="cls-3" cx="256" cy="64" rx="184" ry="56"/>
  </g>
  <g>
    <path class="cls-1" d="m388.44,16.75C352.95,5.95,305.92,0,256,0s-96.95,5.95-132.44,16.75c-38.97,11.86-59.56,28.2-59.56,47.25v384c0,19.05,20.6,35.39,59.56,47.25,35.49,10.8,82.52,16.75,132.44,16.75s96.95-5.95,132.44-16.75c38.97-11.86,59.56-28.2,59.56-47.25V64c0-19.05-20.6-35.39-59.56-47.25Zm43.56,303.25c0,20.04-66.96,48-176,48s-176-27.96-176-48v-101.04c10.01,7.69,24.6,14.52,43.56,20.29,35.49,10.8,82.52,16.75,132.44,16.75s96.95-5.95,132.44-16.75c18.96-5.77,33.56-12.6,43.56-20.29v101.04Zm0-128c0,20.04-66.96,48-176,48s-176-27.96-176-48v-101.04c10.01,7.69,24.6,14.52,43.56,20.29,35.49,10.8,82.52,16.75,132.44,16.75s96.95-5.95,132.44-16.75c18.96-5.77,33.56-12.6,43.56-20.29v101.04Zm-176,304c-109.04,0-176-27.96-176-48v-101.04c10.01,7.69,24.6,14.52,43.56,20.29,35.49,10.8,82.52,16.75,132.44,16.75s96.95-5.95,132.44-16.75c18.96-5.77,33.56-12.6,43.56-20.29v101.04c0,20.04-66.96,48-176,48Zm0-384c-109.04,0-176-27.96-176-48s66.96-48,176-48,176,27.96,176,48-66.96,48-176,48Z"/>
    <path class="cls-1" d="m360,152c-4.42,0-8,3.58-8,8v16c0,4.42,3.58,8,8,8s8-3.58,8-8v-16c0-4.42-3.58-8-8-8Z"/>
    <path class="cls-1" d="m384,152v16c0,4.42,3.58,8,8,8s8-3.58,8-8v-16c0-4.42-3.58-8-8-8s-8,3.58-8,8Z"/>
    <path class="cls-1" d="m360,280c-4.42,0-8,3.58-8,8v16c0,4.42,3.58,8,8,8s8-3.58,8-8v-16c0-4.42-3.58-8-8-8Z"/>
    <path class="cls-1" d="m384,280v16c0,4.42,3.58,8,8,8s8-3.58,8-8v-16c0-4.42-3.58-8-8-8s-8,3.58-8,8Z"/>
    <path class="cls-1" d="m360,408c-4.42,0-8,3.58-8,8v16c0,4.42,3.58,8,8,8s8-3.58,8-8v-16c0-4.42-3.58-8-8-8Z"/>
    <path class="cls-1" d="m392,400c-4.42,0-8,3.58-8,8v16c0,4.42,3.58,8,8,8s8-3.58,8-8v-16c0-4.42-3.58-8-8-8Z"/>
  </g>
</svg>