<?xml version="1.0" encoding="UTF-8"?>
<svg width="48px" height="48px" viewBox="0 0 48 48" version="1.1" xmlns="http://www.w3.org/2000/svg" xmlns:xlink="http://www.w3.org/1999/xlink">
    <title>Discount</title>
    <g id="Discount" stroke="none" stroke-width="1" fill="none" fill-rule="evenodd">
        <path d="M22.2132034,2.21320344 L22.2132034,6.80720344 L32.2132034,12.2132034 L32.2132034,40.2132034 L10.2132034,40.2132034 L10.2132034,12.2132034 L20.2132034,6.70920344 L20.2132034,2.21320344 L22.2132034,2.21320344 Z M20.2132034,8.99220344 L12.2132034,13.3953933 L12.2132034,38.2132034 L30.2132034,38.2132034 L30.2132034,13.4054881 L22.2132034,9.08020344 L22.2132034,15.2132034 L20.2132034,15.2132034 L20.2132034,8.99220344 Z" id="Combined-Shape" fill="#007CFF" fill-rule="nonzero" transform="translate(21.213203, 21.213203) rotate(-45.000000) translate(-21.213203, -21.213203) "></path>
        <path d="M26,18 L26,32 L24,32 L24,18 L26,18 Z M20,22 C21.6568542,22 23,23.3431458 23,25 C23,26.6568542 21.6568542,28 20,28 C18.3431458,28 17,26.6568542 17,25 C17,23.3431458 18.3431458,22 20,22 Z M30,22 C31.6568542,22 33,23.3431458 33,25 C33,26.6568542 31.6568542,28 30,28 C28.3431458,28 27,26.6568542 27,25 C27,23.3431458 28.3431458,22 30,22 Z M20,24 C19.4477153,24 19,24.4477153 19,25 C19,25.5522847 19.4477153,26 20,26 C20.5522847,26 21,25.5522847 21,25 C21,24.4477153 20.5522847,24 20,24 Z M30,24 C29.4477153,24 29,24.4477153 29,25 C29,25.5522847 29.4477153,26 30,26 C30.5522847,26 31,25.5522847 31,25 C31,24.4477153 30.5522847,24 30,24 Z" id="Combined-Shape" fill="#007CFF" fill-rule="nonzero" opacity="0.300000012"></path>
    </g>
</svg>