<?xml version="1.0" encoding="UTF-8"?>
<svg id="_13_Fingerprint_" data-name="13 Fingerprint
" xmlns="http://www.w3.org/2000/svg" viewBox="0 0 512 512">
  <defs>
    <style>
      .cls-1 {
        fill: #76a0f0;
      }

      .cls-1, .cls-2 {
        stroke-width: 0px;
      }

      .cls-2 {
        fill: #516079;
      }
    </style>
  </defs>
  <path class="cls-1" d="m384,200c0-70.69-57.31-128-128-128s-128,57.31-128,128v112c0,70.69,57.31,128,128,128s128-57.31,128-128v-112Z"/>
  <g>
    <path class="cls-2" d="m8,80c4.42,0,8-3.58,8-8v-40c0-8.82,7.18-16,16-16h40c4.42,0,8-3.58,8-8s-3.58-8-8-8h-40C14.35,0,0,14.35,0,32v40c0,4.42,3.58,8,8,8Z"/>
    <path class="cls-2" d="m480,0h-40c-4.42,0-8,3.58-8,8s3.58,8,8,8h40c8.82,0,16,7.18,16,16v40c0,4.42,3.58,8,8,8s8-3.58,8-8v-40c0-17.65-14.36-32-32-32Z"/>
    <path class="cls-2" d="m504,432c-4.42,0-8,3.58-8,8v40c0,8.82-7.18,16-16,16h-40c-4.42,0-8,3.58-8,8s3.58,8,8,8h40c17.64,0,32-14.36,32-32v-40c0-4.42-3.58-8-8-8Z"/>
    <path class="cls-2" d="m72,496h-40c-8.82,0-16-7.18-16-16v-40c0-4.42-3.58-8-8-8s-8,3.58-8,8v40c0,17.64,14.35,32,32,32h40c4.42,0,8-3.58,8-8s-3.58-8-8-8Z"/>
    <path class="cls-2" d="m504,248h-112v-48c0-74.99-61.01-136-136-136S120,125.01,120,200v48H8c-4.42,0-8,3.58-8,8s3.58,8,8,8h112v48c0,74.99,61.01,136,136,136s136-61.01,136-136v-48h112c4.42,0,8-3.58,8-8s-3.58-8-8-8Zm-368-48c0-66.17,53.83-120,120-120s120,53.83,120,120v48h-16v-48c0-57.35-46.65-104-104-104-36.38,0-70.61,19.47-89.33,50.8-2.27,3.79-1.03,8.7,2.76,10.97,3.79,2.27,8.7,1.03,10.97-2.76,15.85-26.53,44.82-43.01,75.6-43.01,48.52,0,88,39.48,88,88v48h-16v-48c0-4.42-3.58-8-8-8s-8,3.58-8,8v48h-16v-48c0-22.06-17.94-40-40-40s-40,17.94-40,40v48h-16v-48c0-30.88,25.12-56,56-56,19.89,0,38.47,10.73,48.49,28.01,2.21,3.82,7.11,5.13,10.93,2.91,3.82-2.22,5.12-7.11,2.91-10.93-12.87-22.2-36.75-35.99-62.33-35.99-39.7,0-72,32.3-72,72v48h-16v-48c0-4.9.42-9.85,1.23-14.7.73-4.36-2.2-8.48-6.56-9.22-4.35-.73-8.48,2.2-9.22,6.56-.97,5.73-1.46,11.57-1.46,17.36v48h-16v-48Zm96,64h16v48c0,4.42,3.58,8,8,8s8-3.58,8-8v-48h16v48c0,13.23-10.77,24-24,24s-24-10.77-24-24v-48Zm32-16v-48c0-4.42-3.58-8-8-8s-8,3.58-8,8v48h-16v-48c0-13.23,10.77-24,24-24s24,10.77,24,24v48h-16Zm112,64c0,66.17-53.83,120-120,120s-120-53.83-120-120v-48h16v48c0,57.35,46.65,104,104,104,36.38,0,70.61-19.47,89.33-50.8,2.27-3.79,1.03-8.7-2.76-10.97-3.79-2.27-8.71-1.03-10.97,2.76-15.85,26.53-44.82,43.01-75.6,43.01-48.52,0-88-39.48-88-88v-48h16v48c0,4.42,3.58,8,8,8s8-3.58,8-8v-48h16v48c0,22.06,17.94,40,40,40s40-17.94,40-40v-48h16v48c0,30.88-25.12,56-56,56-19.89,0-38.47-10.73-48.49-28.01-2.22-3.82-7.11-5.12-10.93-2.91-3.82,2.22-5.12,7.11-2.91,10.93,12.87,22.2,36.75,35.99,62.33,35.99,39.7,0,72-32.3,72-72v-48h16v48c0,4.9-.42,9.85-1.23,14.69-.74,4.36,2.2,8.49,6.56,9.22.45.08.9.11,1.34.11,3.83,0,7.22-2.76,7.88-6.67.97-5.72,1.46-11.57,1.46-17.36v-48h16v48Z"/>
  </g>
</svg>