<?xml version="1.0" encoding="UTF-8"?>
<svg id="_25_Firewall_" data-name="25 Firewall
" xmlns="http://www.w3.org/2000/svg" viewBox="0 0 512 512">
  <defs>
    <style>
      .cls-1 {
        fill: #516079;
      }

      .cls-1, .cls-2, .cls-3, .cls-4 {
        stroke-width: 0px;
      }

      .cls-2 {
        fill: #909490;
      }

      .cls-3 {
        fill: #ff8b73;
      }

      .cls-4 {
        fill: #ffd756;
      }
    </style>
  </defs>
  <g>
    <rect class="cls-2" x="8" y="56" width="496" height="288"/>
    <g>
      <path class="cls-3" d="m306,239.08s-13.5,40.92-26,40.92c-24,0-24-112-24-112,0,0-88,106.46-88,208,0,40,24,80,88,80s88-40,88-80c0-50.77-38-96.31-38-136.92Z"/>
      <path class="cls-4" d="m280,394c0,20-10.75,30-24,30s-24-10-24-30c0-27.61,10.75-50,24-50s24,22.39,24,50Z"/>
    </g>
  </g>
  <g>
    <path class="cls-1" d="m256,336c-18.24,0-32,24.93-32,58,0,26.25,16.07,38,32,38s32-11.75,32-38c0-33.07-13.76-58-32-58Zm0,80c-10.02,0-16-8.22-16-22,0-25.25,9.63-42,16-42s16,16.75,16,42c0,13.78-5.98,22-16,22Z"/>
    <path class="cls-1" d="m504,48H8c-4.42,0-8,3.58-8,8v288c0,4.42,3.58,8,8,8h153.47c-.98,8.18-1.47,16.18-1.47,24,0,23.68,7.87,45.15,22.15,60.46,16.82,18.02,42.35,27.54,73.85,27.54s57.03-9.52,73.85-27.54c14.28-15.31,22.15-36.78,22.15-60.46,0-8.2-.9-16.19-2.43-24h154.43c4.42,0,8-3.58,8-8V56c0-4.42-3.58-8-8-8Zm-144,16h80v40h-80v-40Zm32,96h-80v-40h80v40Zm48,16v40h-80v-40h80Zm-173.75,40c-1.43-15.9-1.95-31.11-2.14-40h79.89v40h-77.75Zm29.75,16v11.31c-5.34,13.98-12.29,26.49-16.1,28.58-1.28-.88-7.49-6.77-11.88-39.88h27.99Zm-176-72v-40h80v40h-80Zm32,16v40h-80v-40h80Zm16,0h71.76c-6.81,9.26-16.39,23.03-26.6,40h-45.16v-40Zm48-16v-40h80v40h-80Zm48-96h80v40h-80v-40Zm-96,0h80v40h-80v-40Zm-96,0h80v40h-80v-40Zm-56,0h40v40H16v-40Zm0,56h88v40H16v-40Zm0,56h40v40H16v-40Zm0,56h88v40H16v-40Zm40,104H16v-48h40v48Zm96,0h-80v-48h80v48Zm-32-64v-40h80v7.21c-5.93,11.13-11.2,22.06-15.81,32.79h-64.19Zm48,16h9.72c-3.88,10.31-7.11,20.41-9.72,30.3v-30.3Zm88,160c-74.23,0-80-55.11-80-72,0-73.31,48.31-150.61,72.59-184.81.43,9.79,1.17,21.68,2.46,33.66,4.68,43.67,13.61,63.15,28.95,63.15,7.95,0,15.2-6.54,22.62-20.49,1.51,5.13,3.33,10.31,5.32,15.54.01.03.02.05.03.08,2.49,6.54,5.24,13.16,8.06,19.89,9.82,23.5,19.97,47.79,19.97,72.99,0,16.89-5.77,72-80,72Zm88-117c-3.81-11.66-8.54-22.99-13.21-34.16-1.24-2.97-2.47-5.92-3.67-8.84h16.88v43Zm-23.07-59c-4.09-11.54-6.93-22.57-6.93-32.92,0-2.01-.75-3.87-2-5.28v-1.79h80v40h-71.07Zm119.07,64h-80v-48h80v48Zm56,0h-40v-48h40v48Zm0-64h-88v-40h88v40Zm0-56h-40v-40h40v40Zm0-56h-88v-40h88v40Zm0-56h-40v-40h40v40Z"/>
  </g>
</svg>