<?xml version="1.0" encoding="utf-8"?>
<!-- Generator: Adobe Illustrator 22.1.0, SVG Export Plug-In . SVG Version: 6.00 Build 0)  -->
<svg version="1.1" id="图层_1" xmlns="http://www.w3.org/2000/svg" xmlns:xlink="http://www.w3.org/1999/xlink" x="0px" y="0px"
	 viewBox="0 0 48 48" style="enable-background:new 0 0 48 48;" xml:space="preserve">
<style type="text/css">
	.st0{opacity:0.3;fill:#007CFF;enable-background:new    ;}
	.st1{fill:#007CFF;}
</style>
<g id="Group">
	<path id="Combined-Shape" class="st0" d="M10,18c-1.1,0-2,0.9-2,2v2c0,1.1,0.9,2,2,2s2-0.9,2-2v-2C12,18.9,11.1,18,10,18z
		 M14.8,26.3c-0.5,0.6-0.9,1.1-1.2,1.8c-0.7-1.3-2-2.1-3.5-2.1c-2.2,0-4,1.8-4,4v6H4v-6c0-2.3,1.2-4.2,3.1-5.3C6.4,24,6,23.1,6,22
		v-2c0-2.2,1.8-4,4-4s4,1.8,4,4v2c0,1.1-0.4,2-1.1,2.7C13.6,25.1,14.3,25.7,14.8,26.3z"/>
	<path id="Combined-Shape_1_" class="st0" d="M38,18c-1.1,0-2,0.9-2,2v2c0,1.1,0.9,2,2,2s2-0.9,2-2v-2C40,18.9,39.1,18,38,18z
		 M33.2,26.3c0.5-0.7,1.1-1.2,1.9-1.6C34.4,24,34,23.1,34,22v-2c0-2.2,1.8-4,4-4s4,1.8,4,4v2c0,1.1-0.4,2-1.1,2.7
		c1.8,1,3.1,3,3.1,5.3v6h-2v-6c0-2.2-1.8-4-4-4c-1.5,0-2.9,0.9-3.5,2.1C34.1,27.5,33.7,26.9,33.2,26.3z"/>
	<path id="Combined-Shape_2_" class="st1" d="M24,10c-2.2,0-4,1.8-4,4v4c0,2.2,1.8,4,4,4s4-1.8,4-4v-4C28,11.8,26.2,10,24,10z
		 M14,40h-2v-6c0-5.3,3.4-9.8,8.2-11.4C18.8,21.5,18,19.9,18,18v-4c0-3.3,2.7-6,6-6s6,2.7,6,6v4c0,1.9-0.8,3.5-2.2,4.6
		C32.6,24.2,36,28.7,36,34v6h-2v-6c0-5.5-4.5-10-10-10s-10,4.5-10,10V40z"/>
</g>
</svg>
