<?xml version="1.0" encoding="utf-8"?>
<!-- Generator: Adobe Illustrator 26.4.1, SVG Export Plug-In . SVG Version: 6.00 Build 0)  -->
<svg version="1.1" id="图层_1" xmlns="http://www.w3.org/2000/svg" xmlns:xlink="http://www.w3.org/1999/xlink" x="0px" y="0px"
	 viewBox="0 0 48 48" style="enable-background:new 0 0 48 48;" xml:space="preserve">
<style type="text/css">
	.st0{fill:#007CFF;}
	.st1{opacity:0.3;fill:#007CFF;enable-background:new    ;}
</style>
<path id="形状结合" class="st0" d="M15,8c0.6,0,1,0.4,1,1h1c0-0.6,0.4-1,1-1h11.1C34,8,38,12,38,16.9V17c0,0.6-0.4,1-1,1H27
	l0.8,19c0.1,2.7-2,4.9-4.6,5c-0.1,0-0.1,0-0.2,0c-2.7,0-4.8-2.2-4.8-4.8c0-0.1,0-0.1,0-0.2L19,18h-1c-0.6,0-1-0.4-1-1h-1
	c0,0.6-0.4,1-1,1h-4c-0.6,0-1-0.4-1-1V9c0-0.6,0.4-1,1-1H15z M25,18H21l-0.8,19c0,0,0,0.1,0,0.1c0,1.6,1.3,2.8,2.8,2.8
	c0,0,0.1,0,0.1,0c1.6-0.1,2.8-1.4,2.7-3L25,18z M14,10h-2v6h2V10z M19,16h16.9c-0.4-3.4-3.3-6-6.8-6H19V16z M17,15v-4h-1v4H17z"/>
<path id="形状结合_00000073718929903914599480000015967582727616288935_" class="st1" d="M21,38c0.6,0,1,0.4,1,1s-0.4,1-1,1
	s-1-0.4-1-1S20.4,38,21,38z M25,38c0.6,0,1,0.4,1,1s-0.4,1-1,1s-1-0.4-1-1S24.4,38,25,38z M23,36c0.6,0,1,0.4,1,1s-0.4,1-1,1
	s-1-0.4-1-1S22.4,36,23,36z M23,32c0.6,0,1-0.4,1-1s-0.4-1-1-1s-1,0.4-1,1S22.4,32,23,32z M21,35c0.6,0,1-0.4,1-1s-0.4-1-1-1
	s-1,0.4-1,1S20.4,35,21,35z M21,29c0.6,0,1-0.4,1-1s-0.4-1-1-1s-1,0.4-1,1S20.4,29,21,29z M25,35c0.6,0,1-0.4,1-1s-0.4-1-1-1
	s-1,0.4-1,1S24.4,35,25,35z M25,29c0.6,0,1-0.4,1-1s-0.4-1-1-1s-1,0.4-1,1S24.4,29,25,29z"/>
</svg>
