<?xml version="1.0" encoding="UTF-8"?>
<svg id="_10_Key_" data-name="10 Key
" xmlns="http://www.w3.org/2000/svg" viewBox="0 0 512 512">
  <defs>
    <style>
      .cls-1 {
        fill: #516079;
      }

      .cls-1, .cls-2 {
        stroke-width: 0px;
      }

      .cls-2 {
        fill: #ffd756;
      }
    </style>
  </defs>
  <g>
    <polygon class="cls-2" points="152 368 72 448 128 504 152 480 128 456 160 424 184 448 208 424 152 368"/>
    <path class="cls-2" d="m400,8c-48.6,0-88,39.4-88,88,0,9.83,1.61,19.29,4.59,28.12,3.84,11.39.68,23.98-7.82,32.48L28.69,436.69c-6.25,6.25-6.25,16.38,0,22.63l8,8c3.12,3.12,7.22,4.69,11.31,4.69s8.19-1.56,11.31-4.69c0,0,219.1-219.1,280.09-280.09,8.5-8.5,21.08-11.65,32.47-7.81,8.83,2.98,18.29,4.59,28.12,4.59,48.6,0,88-39.4,88-88S448.6,8,400,8Zm0,128c-22.09,0-40-17.91-40-40s17.91-40,40-40,40,17.91,40,40-17.91,40-40,40Z"/>
  </g>
  <g>
    <path class="cls-1" d="m400,48c-26.47,0-48,21.53-48,48s21.53,48,48,48,48-21.53,48-48-21.53-48-48-48Zm0,80c-17.64,0-32-14.35-32-32s14.36-32,32-32,32,14.35,32,32-14.36,32-32,32Z"/>
    <path class="cls-1" d="m400,0c-52.93,0-96,43.07-96,96,0,10.5,1.69,20.82,5.01,30.68,2.81,8.35.5,17.87-5.89,24.27L23.03,431.03c-4.53,4.53-7.03,10.56-7.03,16.97s2.5,12.44,7.03,16.97l8,8c4.53,4.53,10.56,7.03,16.97,7.03s12.44-2.5,16.97-7.03l10.34-10.34,47.03,47.03c1.56,1.56,3.61,2.34,5.66,2.34s4.09-.78,5.66-2.34l24-24c3.12-3.12,3.12-8.19,0-11.31l-18.34-18.34,20.69-20.69,18.34,18.34c3.12,3.12,8.19,3.12,11.31,0l24-24c1.5-1.5,2.34-3.54,2.34-5.66s-.84-4.16-2.34-5.66l-47.03-47.03,178.44-178.44c6.39-6.39,15.91-8.7,24.26-5.89,9.86,3.33,20.19,5.01,30.68,5.01,52.93,0,96-43.07,96-96S452.93,0,400,0Zm-203.31,424l-12.69,12.69-18.34-18.34c-3.12-3.12-8.19-3.12-11.31,0l-32,32c-3.12,3.12-3.12,8.19,0,11.31l18.34,18.34-12.69,12.69-41.37-41.37,68.69-68.69,41.37,41.37Zm203.31-248c-8.75,0-17.35-1.4-25.57-4.17-14.06-4.74-30.03-.92-40.69,9.74L53.66,461.66c-1.51,1.51-3.52,2.34-5.66,2.34s-4.15-.83-5.66-2.34l-8-8c-1.51-1.51-2.34-3.52-2.34-5.66s.83-4.15,2.34-5.66L314.43,162.25c10.66-10.66,14.48-26.63,9.74-40.69-2.77-8.21-4.17-16.81-4.17-25.56,0-44.11,35.89-80,80-80s80,35.89,80,80-35.89,80-80,80Z"/>
  </g>
</svg>