<?xml version="1.0" encoding="utf-8"?>
<!-- Generator: Adobe Illustrator 26.4.1, SVG Export Plug-In . SVG Version: 6.00 Build 0)  -->
<svg version="1.1" id="图层_1" xmlns="http://www.w3.org/2000/svg" xmlns:xlink="http://www.w3.org/1999/xlink" x="0px" y="0px"
	 viewBox="0 0 48 48" style="enable-background:new 0 0 48 48;" xml:space="preserve">
<style type="text/css">
	.st0{fill:#007CFF;}
	.st1{opacity:0.3;fill:#007CFF;enable-background:new    ;}
</style>
<path id="形状结合" class="st0" d="M24,8c5.5,0,10,4.5,10,10v2h1c1.1,0,2,0.9,2,2v16c0,1.1-0.9,2-2,2H13c-1.1,0-2-0.9-2-2V22
	c0-1.1,0.9-2,2-2h1v-2C14,12.5,18.5,8,24,8z M35,22H13v16h22V22z M24,10c-4.4,0-8,3.6-8,8v2h16v-2C32,13.6,28.4,10,24,10z"/>
<path id="形状结合_00000015329604116045389210000004710495912772965791_" class="st1" d="M24,26c1.7,0,3,1.3,3,3
	c0,1.3-0.8,2.4-2,2.8l0,2.2c0,0.6-0.4,1-1,1s-1-0.4-1-1l0-2.2c-1.2-0.4-2-1.5-2-2.8C21,27.3,22.3,26,24,26z M24,28c-0.6,0-1,0.4-1,1
	s0.4,1,1,1s1-0.4,1-1S24.6,28,24,28z"/>
</svg>
