<?xml version="1.0" encoding="utf-8"?>
<!-- Generator: Adobe Illustrator 26.4.1, SVG Export Plug-In . SVG Version: 6.00 Build 0)  -->
<svg version="1.1" id="图层_1" xmlns="http://www.w3.org/2000/svg" xmlns:xlink="http://www.w3.org/1999/xlink" x="0px" y="0px"
	 viewBox="0 0 48 48" style="enable-background:new 0 0 48 48;" xml:space="preserve">
<style type="text/css">
	.st0{fill:#007CFF;}
	.st1{opacity:0.3;fill:#007CFF;enable-background:new    ;}
</style>
<path id="Combined-Shape" class="st0" d="M11,15.9v2.5l-1.8,1.3l12.7,11.9c1.2,1.1,3,1.1,4.1,0l12.7-11.9L37,18.5v-2.5l3.2,2.5
	c0.5,0.4,0.8,1,0.8,1.6v20c0,1.1-0.9,2-2,2H9c-1.1,0-2-0.9-2-2V20c0-0.6,0.3-1.2,0.8-1.6L11,15.9z M19.8,32.5L10.3,40h26.4l-8.5-7.5
	l-0.8,0.7c-1.9,1.8-4.9,1.8-6.8,0L19.8,32.5z M39,22.3l-9.4,8.8l9.4,8.2V22.3z M9,22.3v16.2l9.3-7.4L9,22.3z M24,6l4,3l-3.3,0
	L24,8.5L23.3,9l-3.3,0L24,6z"/>
<path id="Combined-Shape_00000100346436334595192650000001921768652541274000_" class="st1" d="M37,9v15h-2V11H13v13h-2V9H37z
	 M27,19v2H17v-2H27z M31,15v2H17v-2H31z"/>
</svg>
