<?xml version="1.0" encoding="UTF-8"?>
<svg id="_22_Network_" data-name="22 Network
" xmlns="http://www.w3.org/2000/svg" viewBox="0 0 512 512">
  <defs>
    <style>
      .cls-1 {
        fill: #76a0f0;
      }

      .cls-1, .cls-2, .cls-3 {
        stroke-width: 0px;
      }

      .cls-2 {
        fill: #516079;
      }

      .cls-3 {
        fill: #a8d679;
      }
    </style>
  </defs>
  <g>
    <rect class="cls-1" x="192" y="8" width="128" height="96"/>
    <rect class="cls-1" x="8" y="200" width="128" height="96"/>
    <rect class="cls-1" x="376" y="200" width="128" height="96"/>
    <rect class="cls-1" x="192" y="376" width="128" height="96"/>
    <circle class="cls-3" cx="72" cy="56" r="16"/>
    <circle class="cls-3" cx="440" cy="56" r="16"/>
    <circle class="cls-3" cx="72" cy="440" r="16"/>
    <circle class="cls-3" cx="440" cy="440" r="16"/>
    <circle class="cls-3" cx="256" cy="256" r="16"/>
  </g>
  <g>
    <path class="cls-2" d="m192,112h56v16h-16c-4.42,0-8,3.58-8,8s3.58,8,8,8h48c4.42,0,8-3.58,8-8s-3.58-8-8-8h-16v-16h56c4.42,0,8-3.58,8-8V8c0-4.42-3.58-8-8-8h-128c-4.42,0-8,3.58-8,8v96c0,4.42,3.58,8,8,8Zm8-96h112v80h-112V16Z"/>
    <path class="cls-2" d="m96,336c4.42,0,8-3.58,8-8s-3.58-8-8-8h-16v-16h56c4.42,0,8-3.58,8-8v-96c0-4.42-3.58-8-8-8H8c-4.42,0-8,3.58-8,8v96c0,4.42,3.58,8,8,8h56v16h-16c-4.42,0-8,3.58-8,8s3.58,8,8,8h48ZM16,208h112v80H16v-80Z"/>
    <path class="cls-2" d="m504,192h-128c-4.42,0-8,3.58-8,8v96c0,4.42,3.58,8,8,8h56v16h-16c-4.42,0-8,3.58-8,8s3.58,8,8,8h48c4.42,0,8-3.58,8-8s-3.58-8-8-8h-16v-16h56c4.42,0,8-3.58,8-8v-96c0-4.42-3.58-8-8-8Zm-8,96h-112v-80h112v80Z"/>
    <path class="cls-2" d="m320,368h-128c-4.42,0-8,3.58-8,8v96c0,4.42,3.58,8,8,8h56v16h-16c-4.42,0-8,3.58-8,8s3.58,8,8,8h48c4.42,0,8-3.58,8-8s-3.58-8-8-8h-16v-16h56c4.42,0,8-3.58,8-8v-96c0-4.42-3.58-8-8-8Zm-8,96h-112v-80h112v80Z"/>
    <path class="cls-2" d="m352,64h65.38c2.41,6.81,7.82,12.21,14.62,14.62v89.38c0,4.42,3.58,8,8,8s8-3.58,8-8v-89.38c9.31-3.3,16-12.19,16-22.62,0-13.23-10.77-24-24-24-10.43,0-19.32,6.69-22.62,16h-65.38c-4.42,0-8,3.58-8,8s3.58,8,8,8Zm88-16c4.41,0,8,3.59,8,8s-3.59,8-8,8-8-3.59-8-8,3.59-8,8-8Z"/>
    <path class="cls-2" d="m160,432h-65.38c-2.41-6.81-7.82-12.21-14.62-14.62v-57.38c0-4.42-3.58-8-8-8s-8,3.58-8,8v57.38c-9.31,3.3-16,12.19-16,22.62,0,13.23,10.77,24,24,24,10.43,0,19.32-6.69,22.62-16h65.38c4.42,0,8-3.58,8-8s-3.58-8-8-8Zm-88,16c-4.41,0-8-3.59-8-8s3.59-8,8-8,8,3.59,8,8-3.59,8-8,8Z"/>
    <path class="cls-2" d="m64,78.62v89.38c0,4.42,3.58,8,8,8s8-3.58,8-8v-89.38c6.81-2.41,12.21-7.82,14.62-14.62h65.38c4.42,0,8-3.58,8-8s-3.58-8-8-8h-65.38c-3.3-9.31-12.19-16-22.62-16-13.23,0-24,10.77-24,24,0,10.43,6.69,19.32,16,22.62Zm8-30.62c4.41,0,8,3.59,8,8s-3.59,8-8,8-8-3.59-8-8,3.59-8,8-8Z"/>
    <path class="cls-2" d="m448,417.38v-57.38c0-4.42-3.58-8-8-8s-8,3.58-8,8v57.38c-6.81,2.41-12.21,7.82-14.62,14.62h-65.38c-4.42,0-8,3.58-8,8s3.58,8,8,8h65.38c3.3,9.31,12.19,16,22.62,16,13.23,0,24-10.77,24-24,0-10.43-6.69-19.32-16-22.62Zm-8,30.62c-4.41,0-8-3.59-8-8s3.59-8,8-8,8,3.59,8,8-3.59,8-8,8Z"/>
    <path class="cls-2" d="m248,278.62v65.38c0,4.42,3.58,8,8,8s8-3.58,8-8v-65.38c6.81-2.41,12.21-7.82,14.62-14.62h65.38c4.42,0,8-3.58,8-8s-3.58-8-8-8h-65.38c-2.41-6.81-7.82-12.21-14.62-14.62v-65.38c0-4.42-3.58-8-8-8s-8,3.58-8,8v65.38c-6.81,2.41-12.21,7.82-14.62,14.62h-65.38c-4.42,0-8,3.58-8,8s3.58,8,8,8h65.38c2.41,6.81,7.82,12.21,14.62,14.62Zm8-30.62c4.41,0,8,3.59,8,8s-3.59,8-8,8-8-3.59-8-8,3.59-8,8-8Z"/>
  </g>
</svg>