<svg xmlns="http://www.w3.org/2000/svg" viewBox="0 0 32 32"><title>83-Phone</title><g id="_83-Phone" data-name="83-Phone"><path d="M23.13,16.44a1,1,0,0,0-1.41,0L18.18,20l-5.66-5.66,3.54-3.54a1,1,0,0,0,0-1.41L9,2.3a1,1,0,0,0-1.41,0l-5,5a4.82,4.82,0,0,0,0,7.07L18.18,29.87a4.84,4.84,0,0,0,3.44,1.55,4.63,4.63,0,0,0,1.47-.25,5.91,5.91,0,0,0,2.16-1.3l4.95-4.95a1,1,0,0,0,0-1.41Zm.71,12a2.85,2.85,0,0,1-4.25,0l-7.78-7.78L4,12.9A2.85,2.85,0,0,1,4,8.66L8.28,4.42l5.66,5.66L11.11,12.9a2,2,0,0,0,0,2.83l5.66,5.66a2,2,0,0,0,2.83,0l2.83-2.83,5.66,5.66Z"/><path d="M25,14a7,7,0,1,0-7-7A7,7,0,0,0,25,14Zm5-7a5,5,0,0,1-7.75,4.17l6.92-6.92A5,5,0,0,1,30,7ZM25,2a5,5,0,0,1,2.75.83L20.83,9.75A5,5,0,0,1,25,2Z"/></g></svg>