<svg xmlns="http://www.w3.org/2000/svg" viewBox="0 0 32 32"><title>85-Phone-Communication</title><g id="_85-Phone-Communication" data-name="85-Phone-Communication"><path d="M20.63,31.42a4.84,4.84,0,0,1-3.44-1.55L1.63,14.32a4.82,4.82,0,0,1,0-7.07l5-5A1,1,0,0,1,8,2.3l7.07,7.07a1,1,0,0,1,0,1.41l-3.54,3.54L17.18,20l3.54-3.54a1,1,0,0,1,1.41,0l7.07,7.07a1,1,0,0,1,0,1.41l-4.95,4.95a5.91,5.91,0,0,1-2.16,1.3A4.63,4.63,0,0,1,20.63,31.42ZM7.28,4.42,3,8.66A2.85,2.85,0,0,0,3,12.9l7.78,7.78h0l7.78,7.78a2.85,2.85,0,0,0,4.25,0l4.24-4.24-5.66-5.66L18.6,21.39a2,2,0,0,1-2.83,0l-5.66-5.66a2,2,0,0,1,0-2.83l2.83-2.83Z"/><path d="M31,18a1,1,0,0,1-.71-.29L26.59,14H19V12h8a1,1,0,0,1,.71.29L30,14.59V2H13V0H30a2,2,0,0,1,2,2V17a1,1,0,0,1-1,1Z"/><rect x="21" y="6" width="2" height="2"/><rect x="25" y="6" width="2" height="2"/><rect x="17" y="6" width="2" height="2"/></g></svg>