<svg xmlns="http://www.w3.org/2000/svg" viewBox="0 0 32 32"><title>100-Smartphone</title><g id="_100-Smartphone" data-name="100-Smartphone"><path d="M21,24H5V6h8V4H5V3A1,1,0,0,1,6,2h9V0H6A3,3,0,0,0,3,3V29a3,3,0,0,0,3,3H20a3,3,0,0,0,3-3V21H21Zm0,5a1,1,0,0,1-1,1H6a1,1,0,0,1-1-1V26H21Z"/><rect x="12" y="27" width="2" height="2"/><path d="M21,5a8,8,0,0,0-8,8h2a6,6,0,0,1,12,0h2A8,8,0,0,0,21,5Z"/><path d="M21,9a4,4,0,0,0-4,4h2a2,2,0,0,1,4,0h2A4,4,0,0,0,21,9Z"/><circle cx="21" cy="16" r="2"/></g></svg>