<?xml version="1.0" encoding="utf-8"?>
<!-- Generator: Adobe Illustrator 26.4.1, SVG Export Plug-In . SVG Version: 6.00 Build 0)  -->
<svg version="1.1" id="图层_1" xmlns="http://www.w3.org/2000/svg" xmlns:xlink="http://www.w3.org/1999/xlink" x="0px" y="0px"
	 viewBox="0 0 48 48" style="enable-background:new 0 0 48 48;" xml:space="preserve">
<style type="text/css">
	.st0{fill:#007CFF;}
	.st1{opacity:0.3;fill:#007CFF;enable-background:new    ;}
</style>
<path id="形状结合" class="st0" d="M27,35h-6v2h-2v-2H8c-1.1,0-2-0.9-2-2V12c0-1.1,0.9-2,2-2h32c1.1,0,2,0.9,2,2v21
	c0,1.1-0.9,2-2,2H29v2h2c0.6,0,1,0.4,1,1s-0.4,1-1,1H17c-0.6,0-1-0.4-1-1s0.4-1,1-1h10V35z M40,12H8v21h32V12z"/>
<path id="形状结合_00000025438579626379311270000007417790342873301414_" class="st1" d="M16.2,14.5c0.3-0.5,0.9-0.6,1.4-0.3
	c0.5,0.3,0.6,0.9,0.3,1.4l-5,8c-0.3,0.5-0.9,0.6-1.4,0.3s-0.6-0.9-0.3-1.4L16.2,14.5z M12.1,14.5c0.3-0.5,0.9-0.6,1.4-0.3
	c0.5,0.3,0.6,0.9,0.3,1.4L12,18.6c-0.3,0.5-0.9,0.6-1.4,0.3c-0.5-0.3-0.6-0.9-0.3-1.4L12.1,14.5z"/>
</svg>
