<?xml version="1.0" encoding="UTF-8"?>
<svg id="_02_User_" data-name="02 User
" xmlns="http://www.w3.org/2000/svg" viewBox="0 0 512 512">
  <defs>
    <style>
      .cls-1 {
        fill: #76a0f0;
      }

      .cls-1, .cls-2, .cls-3, .cls-4, .cls-5 {
        stroke-width: 0px;
      }

      .cls-2 {
        fill: #516079;
      }

      .cls-3 {
        fill: #ff8b73;
      }

      .cls-4 {
        fill: #ffe2c8;
      }

      .cls-5 {
        fill: #fff;
      }
    </style>
  </defs>
  <g>
    <circle class="cls-1" cx="256" cy="256" r="248"/>
    <circle class="cls-5" cx="256" cy="256" r="200"/>
    <circle class="cls-4" cx="256" cy="256" r="88"/>
    <path class="cls-3" d="m256,456c53.07,0,101.3-20.67,137.1-54.4-34.85-35.54-83.39-57.6-137.1-57.6s-102.25,22.06-137.1,57.6c35.8,33.72,84.03,54.4,137.1,54.4Z"/>
  </g>
  <g>
    <path class="cls-2" d="m437.02,74.98C388.67,26.63,324.38,0,256,0S123.33,26.63,74.98,74.98,0,187.62,0,256s26.63,132.67,74.98,181.02,112.64,74.98,181.02,74.98,132.67-26.63,181.02-74.98,74.98-112.64,74.98-181.02-26.63-132.67-74.98-181.02Zm-181.02,421.02c-132.34,0-240-107.66-240-240S123.66,16,256,16s240,107.66,240,240-107.66,240-240,240Z"/>
    <path class="cls-2" d="m256,48c-114.69,0-208,93.31-208,208s93.31,208,208,208,208-93.31,208-208S370.69,48,256,48Zm-125.35,353.32c34.16-31.87,78.34-49.32,125.35-49.32s91.19,17.46,125.35,49.32c-33.66,29.07-77.48,46.68-125.35,46.68s-91.69-17.61-125.35-46.68Zm262.37-10.98c-26.22-24.72-57.93-41.58-92.38-49.38,30.51-16.1,51.35-48.14,51.35-84.96,0-52.93-43.07-96-96-96s-96,43.07-96,96c0,36.83,20.85,68.87,51.35,84.96-34.44,7.81-66.16,24.67-92.38,49.38-33.98-34.65-54.98-82.09-54.98-134.35,0-105.87,86.13-192,192-192s192,86.13,192,192c0,52.26-20.99,99.69-54.98,134.35Zm-137.02-54.35c-44.11,0-80-35.89-80-80s35.89-80,80-80,80,35.89,80,80-35.89,80-80,80Z"/>
  </g>
</svg>