<?xml version="1.0" encoding="utf-8"?>
<!-- Generator: Adobe Illustrator 26.4.1, SVG Export Plug-In . SVG Version: 6.00 Build 0)  -->
<svg version="1.1" id="图层_1" xmlns="http://www.w3.org/2000/svg" xmlns:xlink="http://www.w3.org/1999/xlink" x="0px" y="0px"
	 viewBox="0 0 48 48" style="enable-background:new 0 0 48 48;" xml:space="preserve">
<style type="text/css">
	.st0{fill:#007CFF;}
	.st1{opacity:0.3;fill:#007CFF;enable-background:new    ;}
</style>
<path id="形状结合" class="st0" d="M35,7c1.7,0,3,1.3,3,3v1.8l0,0c0,0.1,0,0.1,0,0.2v3h3c0.6,0,1,0.4,1,1v12c0,0.6-0.4,1-1,1h-3
	v1c0,0.6-0.4,1-1,1h-3v2c0,0.6-0.4,1-1,1h-2v6c0,1.7-1.3,3-3,3s-3-1.3-3-3v-6h-2c-0.6,0-1-0.4-1-1v-2h-7c-0.6,0-1-0.4-1-1v-2.7
	L7.2,29C6.6,29.1,6,28.7,6,28V16c0-0.7,0.6-1.1,1.2-1l6.8,1.7V14c0-0.6,0.4-1,1-1h14.1l1.9-1.9c0.2-0.2,0.5-0.3,0.7-0.3L36,11v-1
	c0-0.5-0.4-0.9-0.9-1L35,9l-4.2,0C30.9,8.7,31,8.4,31,8c0-0.4-0.1-0.7-0.2-1L35,7z M29,34h-2v6c0,0.6,0.4,1,1,1s1-0.4,1-1V34z
	 M32,31h-8v1h8V31z M32.1,12.9l-1.9,1.9c-0.2,0.2-0.4,0.3-0.7,0.3H16v14h20V13L32.1,12.9z M40,17h-2v10h2V17z M8,17.3v9.4l6-1.5
	v-6.4L8,17.3z"/>
<path id="形状结合_00000003821532460557370620000007987959180225581208_" class="st1" d="M21,5h7c1.7,0,3,1.3,3,3s-1.3,3-3,3h-7
	c-1.7,0-3-1.3-3-3S19.3,5,21,5z M21,7c-0.6,0-1,0.4-1,1c0,0.6,0.4,1,1,1h7c0.6,0,1-0.4,1-1c0-0.6-0.4-1-1-1H21z M33,23
	c0.6,0,1-0.4,1-1s-0.4-1-1-1s-1,0.4-1,1S32.4,23,33,23z M15,25h22v2H15V25z M19,21h2c0.6,0,1,0.4,1,1s-0.4,1-1,1h-2
	c-0.6,0-1-0.4-1-1S18.4,21,19,21z"/>
</svg>
