<?xml version="1.0" encoding="UTF-8"?>
<svg id="_19_Webcam_" data-name="19 Webcam
" xmlns="http://www.w3.org/2000/svg" viewBox="0 0 512 512">
  <defs>
    <style>
      .cls-1 {
        fill: #516079;
      }

      .cls-1, .cls-2, .cls-3, .cls-4 {
        stroke-width: 0px;
      }

      .cls-2 {
        fill: #909490;
      }

      .cls-3 {
        fill: #ff8b73;
      }

      .cls-4 {
        fill: #fff;
      }
    </style>
  </defs>
  <g>
    <rect class="cls-2" x="8" y="128" width="496" height="160" rx="32" ry="32"/>
    <circle class="cls-4" cx="256" cy="208" r="48"/>
    <path class="cls-2" d="m304,288v32h-96v-32h-40v64c0,17.67,14.33,32,32,32h112c17.67,0,32-14.33,32-32v-64h-40Z"/>
    <circle class="cls-3" cx="256" cy="208" r="16"/>
  </g>
  <g>
    <path class="cls-1" d="m256,152c-30.88,0-56,25.12-56,56s25.12,56,56,56,56-25.12,56-56-25.12-56-56-56Zm0,96c-22.06,0-40-17.94-40-40s17.94-40,40-40,40,17.94,40,40-17.94,40-40,40Z"/>
    <path class="cls-1" d="m472,120H40c-22.06,0-40,17.94-40,40v96c0,22.06,17.94,40,40,40h120v56c0,22.06,17.94,40,40,40h112c22.06,0,40-17.94,40-40v-56h120c22.06,0,40-17.94,40-40v-96c0-22.06-17.94-40-40-40Zm-136,232c0,13.23-10.77,24-24,24h-112c-13.23,0-24-10.77-24-24v-56h24v24c0,4.42,3.58,8,8,8h96c4.42,0,8-3.58,8-8v-24h24v56Zm-40-56v16h-80v-16h80Zm200-40c0,13.23-10.77,24-24,24H40c-13.23,0-24-10.77-24-24v-96c0-13.23,10.77-24,24-24h432c13.23,0,24,10.77,24,24v96Z"/>
    <path class="cls-1" d="m256,184c-13.23,0-24,10.77-24,24s10.77,24,24,24,24-10.77,24-24-10.77-24-24-24Zm0,32c-4.41,0-8-3.59-8-8s3.59-8,8-8,8,3.59,8,8-3.59,8-8,8Z"/>
    <path class="cls-1" d="m352,192c-4.42,0-8,3.58-8,8v16c0,4.42,3.58,8,8,8s8-3.58,8-8v-16c0-4.42-3.58-8-8-8Z"/>
    <path class="cls-1" d="m400,192c-4.42,0-8,3.58-8,8v16c0,4.42,3.58,8,8,8s8-3.58,8-8v-16c0-4.42-3.58-8-8-8Z"/>
    <path class="cls-1" d="m112,192c-4.42,0-8,3.58-8,8v16c0,4.42,3.58,8,8,8s8-3.58,8-8v-16c0-4.42-3.58-8-8-8Z"/>
    <path class="cls-1" d="m160,192c-4.42,0-8,3.58-8,8v16c0,4.42,3.58,8,8,8s8-3.58,8-8v-16c0-4.42-3.58-8-8-8Z"/>
  </g>
</svg>