<?xml version="1.0" encoding="UTF-8"?>
<svg id="_16_Wifi_" data-name="16 Wifi
" xmlns="http://www.w3.org/2000/svg" viewBox="0 0 512 512">
  <defs>
    <style>
      .cls-1 {
        fill: #76a0f0;
      }

      .cls-1, .cls-2 {
        stroke-width: 0px;
      }

      .cls-2 {
        fill: #516079;
      }
    </style>
  </defs>
  <g>
    <path class="cls-1" d="m7.1,183.1l39.6,39.6s0,0,0,0c55.91-55.91,130.24-86.7,209.3-86.7s153.4,30.79,209.3,86.7c0,0,0,0,0,0l39.6-39.6C367.44,45.63,144.56,45.63,7.1,183.1Z"/>
    <path class="cls-1" d="m69.32,245.32h0s39.6,39.6,39.6,39.6c81.1-81.1,213.06-81.1,294.16,0l39.6-39.6h0c-102.93-102.93-270.42-102.93-373.35,0Z"/>
    <path class="cls-1" d="m193.77,369.77l62.23,62.23,62.23-62.23c-34.31-34.31-90.14-34.31-124.45,0Z"/>
    <path class="cls-1" d="m131.55,307.55l39.6,39.6c46.79-46.79,122.92-46.79,169.7,0l39.6-39.6c-68.62-68.62-180.28-68.62-248.9,0Z"/>
  </g>
  <g>
    <path class="cls-2" d="m510.56,177.44c-34.36-34.36-74.43-60.97-119.09-79.08-43.13-17.49-88.71-26.36-135.46-26.36s-92.33,8.87-135.46,26.36C75.87,116.47,35.8,143.08,1.44,177.44c-1.5,1.5-2.34,3.54-2.34,5.66s.84,4.16,2.34,5.66l39.6,39.6c3.12,3.12,8.19,3.12,11.31,0,54.4-54.4,126.72-84.35,203.65-84.35s149.25,29.96,203.65,84.35c1.56,1.56,3.61,2.34,5.66,2.34s4.09-.78,5.66-2.34l39.6-39.6c3.12-3.12,3.12-8.19,0-11.31Zm-45.33,34.01c-56.72-53.88-130.7-83.46-209.23-83.46s-152.51,29.57-209.23,83.46l-28.29-28.29c64.28-61.43,148.31-95.16,237.52-95.16s173.24,33.73,237.52,95.16l-28.29,28.29Z"/>
    <path class="cls-2" d="m63.67,239.67c-3.12,3.12-3.12,8.19,0,11.31l39.6,39.6c1.5,1.5,3.54,2.34,5.66,2.34s4.16-.84,5.66-2.34c37.71-37.71,87.94-58.48,141.42-58.48s103.71,20.77,141.42,58.48c1.5,1.5,3.54,2.34,5.66,2.34s4.16-.84,5.66-2.34l39.6-39.6c3.12-3.12,3.12-8.19,0-11.31-106.05-106.05-278.61-106.05-384.67,0Zm339.31,34.04c-40.02-37.21-91.9-57.61-146.98-57.61s-106.96,20.4-146.98,57.61l-28.3-28.3c98.27-92.38,252.28-92.38,350.55,0l-28.3,28.3Z"/>
    <path class="cls-2" d="m188.12,364.12c-1.5,1.5-2.34,3.54-2.34,5.66s.84,4.16,2.34,5.66l62.23,62.23c1.56,1.56,3.61,2.34,5.66,2.34s4.09-.78,5.66-2.34l62.23-62.23c1.5-1.5,2.34-3.54,2.34-5.66s-.84-4.16-2.34-5.66c-37.43-37.43-98.33-37.43-135.76,0Zm67.88,56.57l-50.63-50.63c29.35-24.02,71.92-24.02,101.26,0l-50.63,50.63Z"/>
    <path class="cls-2" d="m125.89,301.89c-1.5,1.5-2.34,3.54-2.34,5.66s.84,4.16,2.34,5.66l39.6,39.6c1.5,1.5,3.54,2.34,5.66,2.34s4.16-.84,5.66-2.34c21.12-21.12,49.24-32.75,79.2-32.75s58.08,11.63,79.2,32.75c1.5,1.5,3.54,2.34,5.66,2.34s4.16-.84,5.66-2.34l39.6-39.6c1.5-1.5,2.34-3.54,2.34-5.66s-.84-4.16-2.34-5.66c-71.74-71.74-188.47-71.74-260.22,0Zm214.79,34.12c-23.37-20.66-53.14-31.95-84.68-31.95s-61.31,11.29-84.68,31.95l-28.33-28.33c63.89-58.14,162.12-58.14,226.01,0l-28.33,28.33Z"/>
  </g>
</svg>