<?xml version="1.0" encoding="utf-8"?>
<!-- Generator: Adobe Illustrator 26.4.1, SVG Export Plug-In . SVG Version: 6.00 Build 0)  -->
<svg version="1.1" id="图层_1" xmlns="http://www.w3.org/2000/svg" xmlns:xlink="http://www.w3.org/1999/xlink" x="0px" y="0px"
	 viewBox="0 0 48 48" style="enable-background:new 0 0 48 48;" xml:space="preserve">
<style type="text/css">
	.st0{fill:#007CFF;}
	.st1{opacity:0.3;fill:#007CFF;enable-background:new    ;}
</style>
<path id="形状结合" class="st0" d="M27.4,6.7C30.7,8,33,11.3,33,15c0,3.5-2,6.5-4.8,8l0.7,15c0.1,2.7-2,4.9-4.6,5
	c-0.1,0-0.1,0-0.2,0c-2.7,0-4.8-2.2-4.8-4.8c0-0.1,0-0.1,0-0.2l0.7-15C17,21.5,15,18.5,15,15c0-3.7,2.3-7,5.6-8.3
	C21.3,6.4,22,6.9,22,7.6l0,7.7l2,0.7l2-0.7l0-7.7C26,6.9,26.7,6.4,27.4,6.7z M24,24c-0.8,0-1.5-0.1-2.2-0.3L21.2,38c0,0,0,0.1,0,0.1
	c0,1.6,1.3,2.8,2.8,2.8c0,0,0.1,0,0.1,0c1.6-0.1,2.8-1.4,2.7-3l-0.6-14.3C25.5,23.9,24.8,24,24,24z M20,9.3c-1.8,1.3-3,3.4-3,5.7
	c0,3.9,3.1,7,7,7s7-3.1,7-7c0-2.3-1.2-4.5-3-5.7l0,6.7c0,0.4-0.3,0.8-0.7,0.9l-3,1c-0.2,0.1-0.4,0.1-0.6,0l-3-1
	C20.3,16.8,20,16.4,20,16L20,9.3z"/>
<path id="形状结合_00000089551989993811412290000015606234027577435055_" class="st1" d="M24,39c0.6,0,1-0.4,1-1s-0.4-1-1-1
	s-1,0.4-1,1S23.4,39,24,39z M24,26c0.6,0,1,0.4,1,1v4c0,0.6-0.4,1-1,1s-1-0.4-1-1v-4C23,26.4,23.4,26,24,26z"/>
</svg>
